<mxfile host="app.diagrams.net" modified="2020-12-29T13:57:04.629Z" agent="5.0 (X11; Linux x86_64) AppleWebKit/537.36 (KHTML, like Gecko) Chrome/87.0.4280.66 Safari/537.36" etag="l5EBEseB6eLtzat-4mcY" version="14.1.2" type="github">
  <diagram id="DTr5TzhJc7Mo3Jtl7aWu" name="Page-1">
    <mxGraphModel dx="1262" dy="773" grid="1" gridSize="10" guides="1" tooltips="1" connect="1" arrows="1" fold="1" page="1" pageScale="1" pageWidth="827" pageHeight="1169" math="1" shadow="0">
      <root>
        <mxCell id="0" />
        <mxCell id="1" parent="0" />
        <mxCell id="5LrO9uCOD_D74uFUd5fg-33" value="&lt;b&gt;4.&amp;nbsp;&lt;/b&gt;Output Module" style="rounded=1;whiteSpace=wrap;html=1;fillColor=none;labelPosition=center;verticalLabelPosition=top;align=center;verticalAlign=bottom;spacingTop=0;spacingBottom=5;" parent="1" vertex="1">
          <mxGeometry x="140" y="200" width="460" height="120" as="geometry" />
        </mxCell>
        <mxCell id="5LrO9uCOD_D74uFUd5fg-47" value="$$\hat{a}$$" style="edgeStyle=none;rounded=1;orthogonalLoop=1;jettySize=auto;html=1;startArrow=block;startFill=1;startSize=3;endArrow=none;endFill=0;endSize=3;strokeColor=#000000;strokeWidth=1;fontSize=12;labelBackgroundColor=none;labelPosition=center;verticalLabelPosition=middle;align=center;verticalAlign=middle;entryX=1;entryY=0.5;entryDx=0;entryDy=0;" parent="1" target="5LrO9uCOD_D74uFUd5fg-91" edge="1">
          <mxGeometry as="geometry">
            <mxPoint x="585" y="259.5" as="targetPoint" />
            <mxPoint x="620" y="260" as="sourcePoint" />
            <mxPoint x="30" as="offset" />
          </mxGeometry>
        </mxCell>
        <mxCell id="5LrO9uCOD_D74uFUd5fg-60" value="$$W_p, b_p$$" style="shape=trapezoid;perimeter=trapezoidPerimeter;whiteSpace=wrap;html=1;fixedSize=1;direction=south;fillColor=#f5f5f5;strokeColor=#666666;fontColor=#333333;size=10;" parent="1" vertex="1">
          <mxGeometry x="160" y="210" width="50" height="60" as="geometry" />
        </mxCell>
        <mxCell id="5LrO9uCOD_D74uFUd5fg-65" value="$$m_{i-1}$$" style="edgeStyle=none;rounded=1;orthogonalLoop=1;jettySize=auto;html=1;startArrow=block;startFill=1;startSize=3;endArrow=none;endFill=0;endSize=3;strokeColor=#000000;strokeWidth=1;fontSize=12;labelBackgroundColor=none;labelPosition=left;verticalLabelPosition=middle;align=right;verticalAlign=middle;exitX=0;exitY=0.75;exitDx=0;exitDy=0;" parent="1" source="5LrO9uCOD_D74uFUd5fg-73" edge="1">
          <mxGeometry as="geometry">
            <mxPoint x="120" y="280" as="targetPoint" />
            <mxPoint x="230" y="280" as="sourcePoint" />
            <mxPoint x="-75" as="offset" />
          </mxGeometry>
        </mxCell>
        <mxCell id="5LrO9uCOD_D74uFUd5fg-66" value="$$\mathcal{Q}_q$$" style="edgeStyle=none;rounded=1;orthogonalLoop=1;jettySize=auto;html=1;startArrow=block;startFill=1;startSize=3;endArrow=none;endFill=0;endSize=3;strokeColor=#000000;strokeWidth=1;fontSize=12;labelBackgroundColor=none;labelPosition=left;verticalLabelPosition=middle;align=right;verticalAlign=middle;exitX=0.5;exitY=1;exitDx=0;exitDy=0;" parent="1" source="5LrO9uCOD_D74uFUd5fg-60" edge="1">
          <mxGeometry as="geometry">
            <mxPoint x="120" y="240" as="targetPoint" />
            <mxPoint x="160" y="230" as="sourcePoint" />
            <mxPoint x="-30" as="offset" />
          </mxGeometry>
        </mxCell>
        <mxCell id="5LrO9uCOD_D74uFUd5fg-69" value="" style="edgeStyle=none;rounded=1;orthogonalLoop=1;jettySize=auto;html=1;startArrow=block;startFill=1;startSize=3;endArrow=none;endFill=0;endSize=3;strokeColor=#000000;strokeWidth=1;fontSize=12;entryX=0.5;entryY=0;entryDx=0;entryDy=0;exitX=0;exitY=0.25;exitDx=0;exitDy=0;labelPosition=center;verticalLabelPosition=top;align=center;verticalAlign=bottom;labelBackgroundColor=none;" parent="1" source="5LrO9uCOD_D74uFUd5fg-73" target="5LrO9uCOD_D74uFUd5fg-60" edge="1">
          <mxGeometry as="geometry">
            <mxPoint x="550" y="270" as="targetPoint" />
            <mxPoint x="230" y="240" as="sourcePoint" />
            <mxPoint y="10" as="offset" />
          </mxGeometry>
        </mxCell>
        <mxCell id="5LrO9uCOD_D74uFUd5fg-70" value="$$W_0,b_0$$" style="shape=trapezoid;perimeter=trapezoidPerimeter;whiteSpace=wrap;html=1;fixedSize=1;direction=south;fillColor=#f5f5f5;strokeColor=#666666;fontColor=#333333;" parent="1" vertex="1">
          <mxGeometry x="300" y="220" width="50" height="80" as="geometry" />
        </mxCell>
        <mxCell id="5LrO9uCOD_D74uFUd5fg-73" value="$$D_0$$" style="rounded=0;whiteSpace=wrap;html=1;fillColor=#f8cecc;fontSize=12;strokeColor=#b85450;" parent="1" vertex="1">
          <mxGeometry x="250" y="220" width="30" height="80" as="geometry" />
        </mxCell>
        <mxCell id="5LrO9uCOD_D74uFUd5fg-74" style="edgeStyle=none;rounded=1;orthogonalLoop=1;jettySize=auto;html=1;startArrow=block;startFill=1;startSize=3;endArrow=none;endFill=0;endSize=3;strokeColor=#000000;strokeWidth=1;fontSize=8;entryX=1;entryY=0.5;entryDx=0;entryDy=0;exitX=0.5;exitY=1;exitDx=0;exitDy=0;" parent="1" source="5LrO9uCOD_D74uFUd5fg-70" target="5LrO9uCOD_D74uFUd5fg-73" edge="1">
          <mxGeometry x="-65" y="159" as="geometry">
            <mxPoint x="220" y="250" as="targetPoint" />
            <mxPoint x="300" y="260" as="sourcePoint" />
          </mxGeometry>
        </mxCell>
        <mxCell id="5LrO9uCOD_D74uFUd5fg-82" value="$$W_1,b_1$$" style="shape=trapezoid;perimeter=trapezoidPerimeter;whiteSpace=wrap;html=1;fixedSize=1;direction=south;fillColor=#f5f5f5;strokeColor=#666666;fontColor=#333333;" parent="1" vertex="1">
          <mxGeometry x="480" y="220" width="50" height="80" as="geometry" />
        </mxCell>
        <mxCell id="5LrO9uCOD_D74uFUd5fg-83" value="$$D_1$$" style="rounded=0;whiteSpace=wrap;html=1;fillColor=#f8cecc;fontSize=12;strokeColor=#b85450;" parent="1" vertex="1">
          <mxGeometry x="430" y="220" width="30" height="80" as="geometry" />
        </mxCell>
        <mxCell id="5LrO9uCOD_D74uFUd5fg-85" style="edgeStyle=none;rounded=1;orthogonalLoop=1;jettySize=auto;html=1;startArrow=block;startFill=1;startSize=3;endArrow=none;endFill=0;endSize=3;strokeColor=#000000;strokeWidth=1;fontSize=8;entryX=0.5;entryY=0;entryDx=0;entryDy=0;exitX=0;exitY=0.5;exitDx=0;exitDy=0;" parent="1" source="u5gKyDJOYuqHdPGIhYjo-2" target="5LrO9uCOD_D74uFUd5fg-70" edge="1">
          <mxGeometry x="-45" y="179" as="geometry">
            <mxPoint x="240" y="400" as="targetPoint" />
            <mxPoint x="370" y="260" as="sourcePoint" />
          </mxGeometry>
        </mxCell>
        <mxCell id="5LrO9uCOD_D74uFUd5fg-86" style="edgeStyle=none;rounded=1;orthogonalLoop=1;jettySize=auto;html=1;startArrow=block;startFill=1;startSize=3;endArrow=none;endFill=0;endSize=3;strokeColor=#000000;strokeWidth=1;fontSize=8;entryX=1;entryY=0.5;entryDx=0;entryDy=0;exitX=0;exitY=0.5;exitDx=0;exitDy=0;" parent="1" source="5LrO9uCOD_D74uFUd5fg-83" target="u5gKyDJOYuqHdPGIhYjo-2" edge="1">
          <mxGeometry x="-45" y="179" as="geometry">
            <mxPoint x="410" y="260" as="targetPoint" />
            <mxPoint x="280" y="420" as="sourcePoint" />
          </mxGeometry>
        </mxCell>
        <mxCell id="5LrO9uCOD_D74uFUd5fg-87" style="edgeStyle=none;rounded=1;orthogonalLoop=1;jettySize=auto;html=1;startArrow=block;startFill=1;startSize=3;endArrow=none;endFill=0;endSize=3;strokeColor=#000000;strokeWidth=1;fontSize=8;entryX=1;entryY=0.5;entryDx=0;entryDy=0;exitX=0.5;exitY=1;exitDx=0;exitDy=0;" parent="1" source="5LrO9uCOD_D74uFUd5fg-82" target="5LrO9uCOD_D74uFUd5fg-83" edge="1">
          <mxGeometry x="-45" y="179" as="geometry">
            <mxPoint x="240" y="400" as="targetPoint" />
            <mxPoint x="280" y="420" as="sourcePoint" />
          </mxGeometry>
        </mxCell>
        <mxCell id="5LrO9uCOD_D74uFUd5fg-91" value="Softmax" style="ellipse;whiteSpace=wrap;html=1;fillColor=#f5f5f5;fontSize=12;strokeColor=#666666;fontColor=#333333;labelPosition=center;verticalLabelPosition=bottom;align=center;verticalAlign=top;" parent="1" vertex="1">
          <mxGeometry x="550" y="245" width="30" height="30" as="geometry" />
        </mxCell>
        <mxCell id="5LrO9uCOD_D74uFUd5fg-92" style="edgeStyle=none;rounded=1;orthogonalLoop=1;jettySize=auto;html=1;startArrow=block;startFill=1;startSize=3;endArrow=none;endFill=0;endSize=3;strokeColor=#000000;strokeWidth=1;fontSize=8;entryX=0.5;entryY=0;entryDx=0;entryDy=0;exitX=0;exitY=0.5;exitDx=0;exitDy=0;" parent="1" source="5LrO9uCOD_D74uFUd5fg-91" target="5LrO9uCOD_D74uFUd5fg-82" edge="1">
          <mxGeometry x="-45" y="179" as="geometry">
            <mxPoint x="240" y="400" as="targetPoint" />
            <mxPoint x="280" y="420" as="sourcePoint" />
          </mxGeometry>
        </mxCell>
        <mxCell id="u5gKyDJOYuqHdPGIhYjo-15" value="" style="group" parent="1" vertex="1" connectable="0">
          <mxGeometry x="369.5" y="240" width="40" height="40" as="geometry" />
        </mxCell>
        <mxCell id="u5gKyDJOYuqHdPGIhYjo-2" value="ELU" style="ellipse;whiteSpace=wrap;html=1;fillColor=#f5f5f5;fontSize=12;strokeColor=#666666;fontColor=#333333;labelPosition=center;verticalLabelPosition=bottom;align=center;verticalAlign=top;" parent="u5gKyDJOYuqHdPGIhYjo-15" vertex="1">
          <mxGeometry width="40" height="40" as="geometry" />
        </mxCell>
        <mxCell id="u5gKyDJOYuqHdPGIhYjo-14" value="" style="group" parent="u5gKyDJOYuqHdPGIhYjo-15" vertex="1" connectable="0">
          <mxGeometry x="6.666666666666666" y="6.666666666666666" width="26.666666666666664" height="26.666666666666664" as="geometry" />
        </mxCell>
        <mxCell id="u5gKyDJOYuqHdPGIhYjo-10" value="" style="endArrow=none;dashed=1;html=1;fillColor=#f5f5f5;strokeColor=#666666;" parent="u5gKyDJOYuqHdPGIhYjo-14" edge="1">
          <mxGeometry width="33.33333333333333" height="33.33333333333333" as="geometry">
            <mxPoint y="13.333333333333332" as="sourcePoint" />
            <mxPoint x="26.666666666666664" y="13.333333333333332" as="targetPoint" />
          </mxGeometry>
        </mxCell>
        <mxCell id="u5gKyDJOYuqHdPGIhYjo-11" value="" style="endArrow=none;dashed=1;html=1;fillColor=#f5f5f5;strokeColor=#666666;" parent="u5gKyDJOYuqHdPGIhYjo-14" edge="1">
          <mxGeometry width="33.33333333333333" height="33.33333333333333" as="geometry">
            <mxPoint x="13.333333333333332" y="26.666666666666664" as="sourcePoint" />
            <mxPoint x="13.333333333333332" as="targetPoint" />
          </mxGeometry>
        </mxCell>
        <mxCell id="u5gKyDJOYuqHdPGIhYjo-8" value="" style="endArrow=none;html=1;endFill=0;curved=1;" parent="u5gKyDJOYuqHdPGIhYjo-14" edge="1">
          <mxGeometry width="33.33333333333333" height="33.33333333333333" as="geometry">
            <mxPoint y="16.666666666666664" as="sourcePoint" />
            <mxPoint x="23.333333333333332" y="3.333333333333333" as="targetPoint" />
            <Array as="points">
              <mxPoint x="6.666666666666666" y="16.666666666666664" />
              <mxPoint x="13.333333333333332" y="13.333333333333332" />
            </Array>
          </mxGeometry>
        </mxCell>
        <mxCell id="u5gKyDJOYuqHdPGIhYjo-24" value="" style="group" parent="1" vertex="1" connectable="0">
          <mxGeometry x="562.5" y="250" width="5" height="20" as="geometry" />
        </mxCell>
        <mxCell id="u5gKyDJOYuqHdPGIhYjo-18" value="" style="rect;whiteSpace=wrap;html=1;strokeColor=#666666;labelPosition=left;verticalLabelPosition=middle;align=right;verticalAlign=middle;spacingRight=10;fontStyle=2;fontColor=#333333;gradientColor=#ffffff;fillColor=#E6E6E6;" parent="u5gKyDJOYuqHdPGIhYjo-24" vertex="1">
          <mxGeometry width="5" height="5" as="geometry" />
        </mxCell>
        <mxCell id="u5gKyDJOYuqHdPGIhYjo-19" value="" style="rect;whiteSpace=wrap;html=1;strokeColor=#666666;labelPosition=left;verticalLabelPosition=middle;align=right;verticalAlign=middle;spacingRight=10;fontStyle=2;fontColor=#333333;fillColor=#666666;" parent="u5gKyDJOYuqHdPGIhYjo-24" vertex="1">
          <mxGeometry y="5" width="5" height="5" as="geometry" />
        </mxCell>
        <mxCell id="u5gKyDJOYuqHdPGIhYjo-20" value="" style="rect;whiteSpace=wrap;html=1;strokeColor=#666666;labelPosition=left;verticalLabelPosition=middle;align=right;verticalAlign=middle;spacingRight=10;fontStyle=2;fontColor=#333333;fillColor=#B3B3B3;" parent="u5gKyDJOYuqHdPGIhYjo-24" vertex="1">
          <mxGeometry y="10" width="5" height="5" as="geometry" />
        </mxCell>
        <mxCell id="u5gKyDJOYuqHdPGIhYjo-21" value="" style="rect;whiteSpace=wrap;html=1;strokeColor=#666666;labelPosition=left;verticalLabelPosition=middle;align=right;verticalAlign=middle;spacingRight=10;fontStyle=2;fontColor=#333333;fillColor=#E6E6E6;" parent="u5gKyDJOYuqHdPGIhYjo-24" vertex="1">
          <mxGeometry y="15" width="5" height="5" as="geometry" />
        </mxCell>
      </root>
    </mxGraphModel>
  </diagram>
</mxfile>
